<?xml version="1.0" encoding="UTF-8"?> <svg xmlns="http://www.w3.org/2000/svg" xmlns:xlink="http://www.w3.org/1999/xlink" version="1.1" id="Слой_1" x="0px" y="0px" viewBox="0 0 595.28 595.28" style="enable-background:new 0 0 595.28 595.28;" xml:space="preserve"> <style type="text/css"> .st0{display:none;fill:#FFFFFF;} .st1{fill:none;stroke:#DF0A15;stroke-width:14;stroke-miterlimit:10;} .st2{fill:#DF0A15;} .st3{fill:#DF0A15;stroke:#FFFFFF;stroke-width:2;stroke-miterlimit:10;} .st4{fill:#F9FDFF;} .st5{fill:#FFFFFF;} </style> <rect class="st0" width="595.28" height="595.28"></rect> <circle class="st1" cx="297.64" cy="297.64" r="231.47"></circle> <circle class="st2" cx="297.64" cy="297.64" r="165.99"></circle> <circle class="st3" cx="297.64" cy="297.64" r="160.2"></circle> <path class="st4" d="M330.24,353.47c-27.88-6.87-28.85-7.3-54.62-13.24c-43-9.95-64.26,13.04-73.76,38.44 c-21.15-37.6-26.43-72.26,12.17-88.85c9.51-21.07,29.46-26.57,97.66-45.3l96.11-25.9l-38.72,67.23l-74.93,1.69l16.25-27.69 l-96.27,29.89c-0.05,0.01-0.11,0.11-0.07,0.11l65.02-2.11l-17.98,31.41l88.83-0.06L330.24,353.47z"></path> <g> <g> <path class="st2" d="M141.77,194.93l-12.36-7.82l-3.44,5.44l2,1.38c1.08,0.73,2.06,1.45,2.95,2.15c0.89,0.7,1.68,1.39,2.37,2.07 c0.69,0.67,1.22,1.33,1.61,1.97c0.39,0.64,0.61,1.25,0.67,1.84l-4.29,5.28c0.42-0.62,0.53-1.27,0.35-1.96 c-0.18-0.69-0.6-1.4-1.24-2.15c-0.64-0.75-1.46-1.52-2.47-2.32c-1.01-0.8-2.13-1.63-3.38-2.5l-5.7-3.91l9.65-15.25l16.6,10.5 L141.77,194.93z M138.99,212.91l-8.06-5.1l13.88-21.93l8.06,5.1l-3.1,4.9l-3.81-2.41l-7.66,12.12l3.81,2.41L138.99,212.91z"></path> <path class="st2" d="M152.04,184.61l-10.07-22.32l4.17-4.65l23.3,7.57l-4.4,4.91L145.49,163l1.67-1.86l9.19,18.65L152.04,184.61z M152.41,177.67l-2.39-4.33l7.31-8.15l4.57,1.9L152.41,177.67z"></path> <path class="st2" d="M175.49,160.4c-0.33,0.27-0.71,0.53-1.12,0.78s-0.87,0.49-1.37,0.73l-2.97-4.26 c0.27-0.14,0.52-0.29,0.73-0.47c0.68-0.55,0.98-1.23,0.9-2.05c-0.08-0.82-0.45-1.78-1.1-2.87c-0.65-1.09-1.48-2.31-2.5-3.65 l-5.34-7.16l14.08-11.29l14.02,17.47l-4.87,3.9l-11.75-14.65l1.95,0.24l-7.06,5.67l0.08-1.95l3.08,4.09 c1.31,1.74,2.42,3.36,3.32,4.86c0.9,1.5,1.54,2.89,1.91,4.17s0.4,2.45,0.1,3.53C177.29,158.54,176.59,159.52,175.49,160.4z"></path> <path class="st2" d="M195.55,144.15l-2.48-24.36l5.42-3.08l19.7,14.57l-5.73,3.26l-16.27-12.94l2.17-1.23l2.81,20.6L195.55,144.15 z M198.1,137.69l-0.89-4.87l9.51-5.41l3.73,3.25L198.1,137.69z"></path> <path class="st2" d="M236.27,123.97L230,102.46l6.05-1.76l6.27,21.51L236.27,123.97z M238.17,114.48l-1.43-4.92l7.8-2.27 l1.43,4.92L238.17,114.48z M246.44,110.04l-5.8,1.02l3.46-12.71l6.39-1.86L246.44,110.04z M249.97,119.97l-9.03-8.47l4.04-4.31 l11.84,10.78L249.97,119.97z M253.29,123.71l-1.66-5.68l1.75,0.96l-3.41,0.99l-1.41-4.82l7.65-2.23l2.67,9.16L253.29,123.71z"></path> <path class="st2" d="M273.24,99.98c2.71-0.29,4.89,0.09,6.51,1.14s2.57,2.78,2.83,5.2c0.28,2.61-0.35,4.67-1.88,6.19 c-1.53,1.52-3.75,2.43-6.66,2.74l-10.53,1.13l-2.39-22.27l6.2-0.67l0.76,7.1L273.24,99.98z M273.14,110.77 c1.06-0.11,1.87-0.49,2.44-1.13c0.56-0.64,0.79-1.48,0.68-2.52c-0.11-1.06-0.51-1.77-1.18-2.14c-0.67-0.37-1.54-0.5-2.6-0.38 l-3.91,0.42l0.66,6.17L273.14,110.77z M285.87,113.97l-2.39-22.27l6.2-0.67l2.39,22.27L285.87,113.97z"></path> <path class="st2" d="M300.07,113.56l1.4-22.36l10.22,0.64c2.04,0.13,3.79,0.57,5.22,1.32c1.44,0.75,2.52,1.78,3.25,3.07 c0.73,1.3,1.04,2.8,0.94,4.5c-0.11,1.68-0.6,3.12-1.49,4.3s-2.09,2.06-3.61,2.64c-1.52,0.58-3.3,0.8-5.35,0.67l-6.71-0.42 l2.98-2.57l-0.54,8.59L300.07,113.56z M306.89,106.04l-2.63-3.08l6.32,0.4c1.32,0.08,2.32-0.14,3.01-0.68s1.06-1.31,1.12-2.33 c0.07-1.04-0.21-1.87-0.82-2.49s-1.58-0.96-2.9-1.05l-6.32-0.4l2.99-2.73L306.89,106.04z"></path> <path class="st2" d="M322.71,115.01l14.26-19.9l6.11,1.28l5.12,23.96l-6.45-1.35l-3.63-20.47l2.44,0.51l-11.53,17.3L322.71,115.01 z M328.9,111.86l2.55-4.24l10.71,2.24l0.64,4.91L328.9,111.86z"></path> <path class="st2" d="M359.67,124.45l-5.91-2.28l8.05-20.9l5.91,2.28L359.67,124.45z M371.29,119.57l-8.9-3.43l1.89-4.9l8.9,3.43 L371.29,119.57z M375.78,106.65l5.91,2.28l-8.05,20.9l-5.91-2.28L375.78,106.65z"></path> <path class="st2" d="M376.85,136.16l4.82-8.23l22.4,13.11l-4.82,8.23l-5-2.93l2.28-3.89l-12.37-7.24l-2.28,3.89L376.85,136.16z M394.91,138.31l7.39-12.62l-5.55-3.25l-1.31,2.05c-0.7,1.1-1.38,2.11-2.05,3.03c-0.67,0.92-1.33,1.73-1.98,2.44 c-0.65,0.71-1.29,1.27-1.91,1.68c-0.62,0.41-1.23,0.66-1.82,0.73l-5.42-4.1c0.63,0.4,1.29,0.49,1.97,0.28 c0.68-0.21,1.38-0.65,2.1-1.31c0.72-0.66,1.47-1.51,2.23-2.55c0.77-1.04,1.56-2.19,2.38-3.46l3.71-5.84l15.58,9.12l-9.93,16.96 L394.91,138.31z"></path> <path class="st2" d="M405.57,148.21l21.96-10.83l4.79,4l-6.77,23.54l-5.06-4.23l6.44-19.77l1.91,1.6l-18.32,9.83L405.57,148.21z M412.51,148.34l4.25-2.54l8.39,7.02l-1.75,4.63L412.51,148.34z"></path> <path class="st2" d="M429.55,169.23l16.81-14.8l6.77,7.69c1.35,1.54,2.27,3.08,2.75,4.63s0.52,3.04,0.12,4.47 c-0.4,1.43-1.24,2.71-2.52,3.84c-1.26,1.11-2.63,1.78-4.09,1.98c-1.46,0.21-2.94-0.02-4.42-0.69c-1.48-0.67-2.9-1.77-4.26-3.31 l-4.44-5.04l3.93,0.3l-6.46,5.69L429.55,169.23z M439.7,168.75l0.32-4.04l4.19,4.76c0.87,0.99,1.74,1.54,2.6,1.65 c0.86,0.11,1.68-0.18,2.45-0.85c0.78-0.69,1.18-1.47,1.18-2.34c0-0.87-0.43-1.8-1.31-2.79l-4.19-4.76l4.05,0.19L439.7,168.75z"></path> <path class="st2" d="M465.78,190.89c1.43,2.33,2.02,4.45,1.78,6.37c-0.25,1.92-1.41,3.51-3.48,4.79c-2.23,1.38-4.37,1.7-6.39,0.97 c-2.03-0.73-3.81-2.34-5.34-4.83l-5.55-9.02l19.08-11.74l3.27,5.31l-6.08,3.74L465.78,190.89z M456,195.45 c0.56,0.91,1.25,1.48,2.07,1.71c0.82,0.23,1.68,0.08,2.57-0.47c0.91-0.56,1.38-1.22,1.43-1.99c0.04-0.77-0.22-1.6-0.77-2.51 l-2.06-3.35l-5.29,3.25L456,195.45z M458.59,208.32l19.08-11.74l3.27,5.31l-19.08,11.74L458.59,208.32z"></path> </g> <g> <path class="st2" d="M91.22,283.37c0.13-1.72,0.54-3.3,1.21-4.74c0.68-1.44,1.58-2.66,2.7-3.66c1.12-1,2.41-1.76,3.86-2.26 c1.45-0.5,3.02-0.68,4.7-0.56c1.68,0.13,3.2,0.55,4.56,1.26s2.52,1.66,3.47,2.83c0.96,1.18,1.66,2.52,2.11,4.03 c0.45,1.51,0.61,3.14,0.48,4.88c-0.15,1.94-0.62,3.66-1.41,5.17s-1.87,2.75-3.25,3.71l-2.81-3.55c0.93-0.7,1.65-1.5,2.16-2.4 c0.51-0.9,0.8-1.91,0.89-3.01c0.08-1.04-0.02-2.01-0.29-2.91c-0.27-0.9-0.71-1.69-1.29-2.38c-0.59-0.69-1.31-1.24-2.15-1.66 c-0.85-0.42-1.8-0.67-2.86-0.75c-1.06-0.08-2.04,0.02-2.94,0.3c-0.9,0.28-1.69,0.72-2.38,1.31c-0.69,0.59-1.23,1.31-1.64,2.15 c-0.41,0.85-0.65,1.79-0.73,2.83c-0.08,1.11,0.05,2.14,0.42,3.11c0.36,0.97,0.96,1.87,1.8,2.71l-3.32,3.08 c-1.22-1.16-2.1-2.55-2.67-4.17C91.28,287.12,91.07,285.33,91.22,283.37z"></path> <path class="st2" d="M90.89,299.6l22.36-1.3l1.18,20.38l-22.36,1.3l-0.3-5.14l19.33-1.12l-1.11,1.25l-0.72-12.46l1.25,1.11 l-19.33,1.12L90.89,299.6z"></path> <path class="st2" d="M95.06,339.86c-0.36-1.73-0.41-3.4-0.15-4.99c0.26-1.59,0.79-3.03,1.59-4.32c0.8-1.29,1.83-2.37,3.08-3.25 c1.26-0.88,2.7-1.49,4.33-1.83s3.19-0.35,4.7-0.04c1.5,0.31,2.88,0.9,4.13,1.78c1.25,0.87,2.31,1.98,3.17,3.33 c0.87,1.34,1.48,2.87,1.83,4.59c0.36,1.73,0.41,3.38,0.14,4.95c-0.26,1.57-0.8,3-1.6,4.29c-0.8,1.29-1.82,2.38-3.06,3.27 c-1.24,0.89-2.69,1.5-4.34,1.85c-1.63,0.34-3.2,0.35-4.72,0.03c-1.52-0.32-2.89-0.91-4.13-1.78c-1.24-0.87-2.29-1.97-3.15-3.3 C96.02,343.1,95.41,341.57,95.06,339.86z M99.37,338.93c0.2,0.98,0.56,1.85,1.06,2.61c0.5,0.76,1.14,1.38,1.89,1.88 c0.76,0.5,1.6,0.83,2.53,1c0.93,0.17,1.91,0.14,2.96-0.07c1.04-0.22,1.96-0.59,2.74-1.11c0.79-0.52,1.43-1.16,1.93-1.9 c0.5-0.75,0.83-1.57,0.99-2.48c0.16-0.91,0.14-1.85-0.06-2.83c-0.2-0.98-0.56-1.85-1.06-2.61c-0.51-0.76-1.14-1.38-1.89-1.88 c-0.76-0.5-1.6-0.83-2.53-1c-0.93-0.17-1.91-0.14-2.96,0.07c-1.02,0.21-1.93,0.58-2.73,1.1c-0.8,0.52-1.44,1.16-1.94,1.91 s-0.83,1.57-0.99,2.48S99.17,337.95,99.37,338.93z"></path> <path class="st2" d="M100.24,359.12l21.08-7.57l3.27,9.13c0.68,1.89,0.95,3.62,0.83,5.21c-0.12,1.58-0.62,2.95-1.5,4.11 c-0.88,1.15-2.11,2.01-3.7,2.58c-1.57,0.56-3.05,0.68-4.47,0.34s-2.67-1.07-3.77-2.22s-1.99-2.66-2.67-4.55l-2.3-6.42l2.98,1.38 l-8.01,2.88L100.24,359.12z M109.46,361.32l1.54-3l2.21,6.14c0.54,1.51,1.26,2.51,2.17,3.03c0.91,0.51,1.94,0.56,3.08,0.15 c1.16-0.42,1.93-1.11,2.31-2.09c0.38-0.97,0.29-2.21-0.25-3.72l-2.2-6.14l3.1,1.34L109.46,361.32z"></path> <path class="st2" d="M112.3,388.87l17.25-8.78l-0.52,1.59l-3.77-7.42l3.76-1.92l8.81,17.31l-3.76,1.92l-3.77-7.42l1.58,0.49 l-17.25,8.78L112.3,388.87z"></path> <path class="st2" d="M124.72,410.61l16.06-10.8l-0.32,1.64l-4.64-6.9l3.5-2.36l10.84,16.12l-3.5,2.36l-4.64-6.9l1.63,0.29 l-16.06,10.8L124.72,410.61z"></path> <path class="st2" d="M154.17,424.47c1.82,2,2.79,3.95,2.89,5.85c0.1,1.9-0.74,3.66-2.52,5.28c-1.89,1.72-3.88,2.43-5.95,2.11 c-2.08-0.32-4.08-1.54-6.02-3.67l-6.81-7.47l16.56-15.09l3.47,3.81l-5.44,4.96L154.17,424.47z M145.2,431.25 c0.89,0.98,1.84,1.53,2.85,1.65c1.01,0.12,1.97-0.24,2.9-1.09c0.91-0.83,1.32-1.71,1.21-2.64c-0.11-0.93-0.61-1.89-1.52-2.88 l-3.15-3.45l-5.44,4.96L145.2,431.25z M150.68,442.97l16.56-15.09l3.47,3.81l-16.56,15.09L150.68,442.97z"></path> <path class="st2" d="M171.25,461.25l12.87-18.33l4.22,2.96l-12.87,18.33L171.25,461.25z M179.42,455.96l2.48-3.54l6.39,4.49 l-2.48,3.54L179.42,455.96z M182.29,474.67l3.36-4.79l0.27,1.68l-2.75-1.93l2.43-3.46l5.68,3.99l-5.09,7.25L182.29,474.67z M183.17,469.62l0.49-12.83l4.88,0.34L187.99,473L183.17,469.62z M187.39,459.6l-3.57-3.21l12.38-4.99l4.48,3.14L187.39,459.6z"></path> <path class="st2" d="M204.19,482.28c-1.58-0.8-2.91-1.8-3.99-2.99c-1.08-1.19-1.87-2.51-2.38-3.93c-0.51-1.43-0.71-2.91-0.62-4.44 c0.09-1.53,0.52-3.04,1.27-4.52c0.75-1.48,1.72-2.72,2.9-3.7s2.5-1.69,3.96-2.12c1.46-0.43,2.99-0.56,4.58-0.4 c1.59,0.16,3.17,0.64,4.73,1.43c1.58,0.8,2.9,1.79,3.96,2.98c1.06,1.18,1.85,2.49,2.35,3.92c0.51,1.43,0.72,2.91,0.64,4.43 c-0.08,1.53-0.5,3.04-1.26,4.54c-0.75,1.48-1.73,2.72-2.92,3.7c-1.19,0.99-2.51,1.69-3.96,2.12c-1.45,0.43-2.96,0.56-4.55,0.4 S205.75,483.07,204.19,482.28z M206.16,478.32c0.89,0.45,1.79,0.72,2.7,0.8c0.91,0.08,1.79-0.03,2.65-0.31s1.65-0.73,2.35-1.35 c0.71-0.62,1.31-1.41,1.79-2.36c0.48-0.95,0.76-1.9,0.85-2.84c0.08-0.94-0.01-1.84-0.28-2.69c-0.27-0.86-0.71-1.63-1.32-2.32 c-0.61-0.69-1.36-1.26-2.25-1.72c-0.89-0.45-1.79-0.72-2.7-0.79c-0.91-0.08-1.79,0.03-2.65,0.31c-0.86,0.28-1.65,0.73-2.35,1.35 c-0.71,0.62-1.31,1.41-1.79,2.36c-0.47,0.93-0.75,1.87-0.84,2.82c-0.09,0.95,0.01,1.85,0.28,2.71c0.27,0.86,0.71,1.63,1.32,2.32 C204.52,477.3,205.27,477.87,206.16,478.32z"></path> <path class="st2" d="M222.36,490.63c-0.36-0.12-0.73-0.28-1.11-0.47c-0.37-0.19-0.78-0.42-1.21-0.68l1.7-4.05 c0.26,0.18,0.54,0.32,0.84,0.42c0.83,0.28,1.59,0.16,2.28-0.36c0.69-0.52,1.35-1.38,1.99-2.59c0.63-1.21,1.28-2.71,1.96-4.51 l3.2-8.51l16.32,5.49l-7.14,21.23l-4.85-1.63l6.17-18.35l0.74,1.5l-9.37-3.15l1.4-0.85l-2.07,5.55c-0.76,2.06-1.53,3.86-2.29,5.41 c-0.77,1.54-1.57,2.8-2.42,3.78c-0.85,0.98-1.77,1.62-2.78,1.94C224.72,491.09,223.6,491.04,222.36,490.63z"></path> <path class="st2" d="M247.17,503.12l1.61-8.72l24.97,4.52l-1.58,8.72l-4.72-0.85l0.83-4.57l-15.56-2.82l-0.83,4.57L247.17,503.12z M265.28,499.34l2.83-15.62l-7.56-1.37l-0.68,3.2c-0.31,1.35-0.63,2.63-0.97,3.82c-0.34,1.2-0.71,2.27-1.12,3.23 c-0.41,0.96-0.86,1.75-1.36,2.37c-0.49,0.63-1.04,1.04-1.64,1.23l-5.32-1.68c0.75,0.16,1.42,0.01,2.02-0.45 c0.59-0.46,1.12-1.16,1.6-2.1c0.47-0.94,0.9-2.08,1.28-3.39c0.38-1.32,0.74-2.76,1.09-4.32l1.5-6.85l16.94,3.07l-3.58,19.77 L265.28,499.34z"></path> <path class="st2" d="M279,503.69l10.63-22.1l5.12,0.15l9.36,22.68l-5.44-0.16l-7.61-20.01l2.05,0.06l-8.8,19.53L279,503.69z M284.13,499.04l1.49-3.89l11.52,0.33l1.29,3.98L284.13,499.04z"></path> <path class="st2" d="M318.33,499.56l-12.06-17.66l5.5-0.59l8.98,14.16L318.33,499.56z M311.45,499.62 c1.27,0.23,2.31,0.22,3.13-0.03c0.82-0.25,1.5-0.92,2.05-2.01l0.91-1.74l0.42-0.59l5.83-15.24l5.06-0.54l-7.59,18.64 c-0.68,1.68-1.55,3.01-2.61,3.98c-1.07,0.97-2.28,1.59-3.65,1.85s-2.83,0.17-4.38-0.29L311.45,499.62z"></path> <path class="st2" d="M356,495.8l-2.69-8.75l2.05,2.65l-14.27-12.75l5.29-1.63l10.89,9.81l-3,0.92l3.55-14.25l4.83-1.49 l-4.57,18.55l0.18-3.34l2.69,8.75L356,495.8z M349.57,490.68l-0.85-2.75l13.58-4.18l0.85,2.75L349.57,490.68z"></path> <path class="st2" d="M374.48,490.01c-0.35,0.16-0.73,0.3-1.13,0.41c-0.41,0.11-0.85,0.22-1.34,0.33l-1.53-4.12 c0.31-0.05,0.61-0.14,0.9-0.27c0.79-0.36,1.27-0.97,1.42-1.83c0.15-0.85,0.04-1.94-0.32-3.25c-0.36-1.31-0.91-2.85-1.65-4.63 l-3.48-8.4l15.66-7.14l9.29,20.38l-4.66,2.12L379.61,466l1.57,0.59l-9,4.1l0.44-1.57l2.28,5.47c0.85,2.03,1.53,3.86,2.02,5.51 c0.49,1.65,0.77,3.12,0.82,4.41c0.05,1.29-0.19,2.39-0.71,3.31C376.52,488.74,375.67,489.47,374.48,490.01z"></path> <path class="st2" d="M404.39,474.47l-10.23-16.44l1.63,0.38l-7.06,4.39l-2.23-3.59l16.49-10.26l2.23,3.59l-7.06,4.4l0.35-1.61 l10.23,16.44L404.39,474.47z"></path> <path class="st2" d="M424.98,460.25l-12.14-15.08l1.67,0.18l-6.48,5.21l-2.65-3.29l15.13-12.18l2.65,3.29l-6.48,5.21l0.16-1.64 l12.13,15.08L424.98,460.25z"></path> <path class="st2" d="M436.29,429.71c1.84-1.99,3.7-3.11,5.59-3.38c1.88-0.26,3.71,0.43,5.48,2.06c1.88,1.74,2.75,3.66,2.61,5.75 c-0.14,2.1-1.18,4.2-3.14,6.31l-6.87,7.42l-16.44-15.21l3.5-3.78l5.4,5L436.29,429.71z M443.82,438.07 c0.9-0.97,1.37-1.96,1.4-2.98c0.04-1.01-0.41-1.95-1.33-2.8c-0.91-0.84-1.82-1.17-2.73-0.98c-0.91,0.19-1.83,0.77-2.74,1.76 l-3.17,3.43l5.4,5L443.82,438.07z M455.03,431.61l-16.44-15.21l3.5-3.78l16.44,15.21L455.03,431.61z"></path> <path class="st2" d="M464.07,420.3l-18.62-12.45l2.86-4.28l18.62,12.45L464.07,420.3z M462.05,404.21l-3.13,3.64l-5.27-12.26 l3.04-4.55L462.05,404.21z M458.59,412.25l-3.59-2.4l4.34-6.49l3.59,2.4L458.59,412.25z M472.16,408.2l-12.84-0.2l0.23-4.89 l15.89,0.19L472.16,408.2z M477.23,408.97l-4.87-3.25l1.67-0.31l-1.87,2.79l-3.51-2.35l3.86-5.77l7.37,4.93L477.23,408.97z"></path> <path class="st2" d="M485.16,384.79l-20.73-8.49l1.95-4.77l20.73,8.49L485.16,384.79z M479.97,369.42l-2.34,4.19l-7.61-10.97 l2.07-5.06L479.97,369.42z M478.19,378l-4-1.64l2.96-7.23l4,1.64L478.19,378z M490.68,371.32l-12.62,2.37l-0.75-4.84l15.61-2.98 L490.68,371.32z M495.8,371.06l-5.42-2.22l1.57-0.63l-1.27,3.11l-3.91-1.6l2.63-6.43l8.2,3.36L495.8,371.06z"></path> <path class="st2" d="M498.35,348.03c-0.43,1.72-1.11,3.24-2.03,4.55c-0.92,1.32-2.03,2.38-3.31,3.2 c-1.28,0.81-2.68,1.34-4.19,1.59c-1.51,0.25-3.08,0.17-4.69-0.24s-3.03-1.07-4.25-2c-1.22-0.93-2.2-2.06-2.94-3.39 c-0.74-1.33-1.21-2.79-1.41-4.38c-0.2-1.59-0.08-3.23,0.34-4.93c0.43-1.72,1.1-3.22,2.02-4.52c0.92-1.3,2.02-2.35,3.3-3.17 c1.28-0.81,2.67-1.35,4.18-1.61c1.51-0.26,3.08-0.19,4.71,0.22c1.61,0.4,3.03,1.08,4.26,2.02c1.23,0.95,2.21,2.08,2.94,3.39 c0.74,1.32,1.2,2.76,1.4,4.34C498.89,344.7,498.78,346.34,498.35,348.03z M494.06,346.99c0.24-0.97,0.3-1.91,0.18-2.81 c-0.13-0.9-0.42-1.74-0.89-2.51c-0.46-0.78-1.08-1.44-1.84-2c-0.76-0.55-1.66-0.96-2.7-1.22c-1.03-0.26-2.02-0.32-2.95-0.2 c-0.93,0.13-1.79,0.42-2.56,0.88c-0.77,0.46-1.43,1.05-1.97,1.8s-0.93,1.6-1.17,2.58c-0.24,0.97-0.3,1.91-0.18,2.81 s0.42,1.74,0.89,2.51c0.46,0.78,1.08,1.44,1.84,2c0.76,0.55,1.66,0.96,2.7,1.22c1.01,0.25,1.99,0.32,2.94,0.19 c0.94-0.13,1.8-0.42,2.58-0.87c0.77-0.45,1.43-1.05,1.97-1.8C493.42,348.82,493.82,347.96,494.06,346.99z"></path> <path class="st2" d="M502.06,328.44l-22.28-2.36l1.02-9.64c0.21-1.99,0.72-3.68,1.52-5.05c0.8-1.37,1.85-2.39,3.14-3.04 c1.29-0.66,2.78-0.9,4.45-0.72c1.65,0.18,3.04,0.72,4.17,1.63s1.94,2.13,2.43,3.64c0.49,1.51,0.63,3.26,0.42,5.26l-0.72,6.78 l-2.08-2.54l8.46,0.9L502.06,328.44z M494.71,322.44l-2.69,2.03l0.69-6.49c0.17-1.59-0.04-2.82-0.64-3.67 c-0.6-0.86-1.5-1.35-2.71-1.48c-1.23-0.13-2.23,0.16-2.99,0.87c-0.76,0.71-1.23,1.86-1.4,3.46l-0.69,6.49l-2.21-2.55 L494.71,322.44z"></path> <path class="st2" d="M503.54,279.58l-22.38,1.02l-0.23-5.15l22.38-1.02L503.54,279.58z M489.03,291.58 c-0.12-2.71,0.38-4.82,1.52-6.35c1.14-1.53,2.91-2.34,5.32-2.45c2.56-0.12,4.53,0.61,5.93,2.18c1.4,1.57,2.16,3.79,2.29,6.67 l0.46,10.1l-22.38,1.02l-0.23-5.15l7.35-0.33L489.03,291.58z M500.27,292.09c-0.06-1.32-0.44-2.35-1.13-3.09 c-0.7-0.74-1.67-1.08-2.93-1.02c-1.24,0.06-2.11,0.48-2.62,1.26c-0.51,0.78-0.73,1.84-0.67,3.19l0.21,4.67l7.35-0.33 L500.27,292.09z"></path> </g> </g> <g> <polygon class="st5" points="96.65,251.96 118.48,271.28 108.77,256.03 117.07,256.22 110.86,235.48 95.05,234.91 106.22,252.31 "></polygon> <polygon class="st5" points="498.63,251.96 476.79,271.28 486.51,256.03 478.21,256.22 484.41,235.48 500.22,234.91 489.06,252.31 "></polygon> </g> <g> <polygon class="st0" points="503.71,239.49 466.96,261.6 492.65,254.7 488.71,266.26 520.56,266.71 528.33,244.77 499,252.76 "></polygon> <polygon class="st0" points="91.57,239.49 128.31,261.6 102.62,254.7 106.56,266.26 74.71,266.71 66.95,244.77 96.28,252.76 "></polygon> </g> <g> <circle class="st2" cx="109.68" cy="239.03" r="6.65"></circle> <circle class="st2" cx="485.59" cy="239.03" r="6.65"></circle> </g> </svg> 