<svg width="300" height="300" viewBox="0 0 300 300" fill="none" xmlns="http://www.w3.org/2000/svg">
<circle cx="150" cy="150" r="150" fill="#FFB800"/>
<path d="M120.001 58C86.8631 58 60 85.46 60 119.334V180.668C60 214.54 86.8631 242 120.001 242C126.81 242 131.392 235.025 128.688 228.775L114.88 196.87C112.734 192.008 108.789 188.207 103.564 186.387C97.1811 184.64 91.0385 179.072 86.1058 170.337L71.8269 145.056C70.2693 142.298 71.0295 139.398 73.7275 137.806C76.4255 136.214 79.2627 136.991 80.8204 139.749L95.0891 165.012C95.8075 166.284 97.4301 166.719 98.6882 165.976C99.9128 165.254 100.333 163.683 99.6341 162.445L85.317 137.095C83.7594 134.337 84.5196 131.437 87.2176 129.844C89.9155 128.252 92.7526 129.029 94.3104 131.787L108.58 157.051C109.298 158.323 110.921 158.758 112.179 158.015C113.404 157.292 113.825 155.722 113.125 154.484L98.8068 129.133C97.2494 126.375 98.0097 123.475 100.707 121.883C103.405 120.291 106.243 121.068 107.8 123.826L122.079 149.107C126.753 157.381 128.398 165.603 127.207 173.047C126.137 178.583 127.384 183.975 130.429 188.306C138.949 200.233 156.682 200.212 165.173 188.264L166.575 186.292C169.682 181.85 170.991 176.349 169.97 170.727C168.315 164.103 170.053 155.717 175.103 146.776C184.937 129.365 200.473 120.965 210.366 126.804C220.258 132.642 220.91 150.596 211.076 168.008C206.292 176.477 200.057 182.21 193.352 184.526C188.078 186.434 184.071 190.343 181.863 195.314L168.886 225.014C165.385 233.027 171.256 242 180.001 242C213.137 242 240 214.54 240 180.668V119.334C240 85.46 213.137 58 180.001 58H120.001Z" fill="white"/>
</svg>
